<svg viewBox="0 0 739.43 739.43" xmlns="http://www.w3.org/2000/svg"
    xmlns:xlink="http://www.w3.org/1999/xlink">
    <linearGradient id="a">
        <stop offset="0" stop-color="#f00" />
        <stop offset=".5" stop-color="#fc7f00" />
        <stop offset="1" stop-color="#faff00" />
    </linearGradient>
    <linearGradient id="b" xlink:href="#a" />
    <linearGradient id="c" gradientUnits="userSpaceOnUse" x1="-227.43" x2="398.86" xlink:href="#a"
        y1="295.22" y2="295.22" />
    <linearGradient id="d" gradientUnits="userSpaceOnUse" x1="-227.43" x2="398.86" xlink:href="#b"
        y1="295.22" y2="295.22" />
    <linearGradient id="e" gradientUnits="userSpaceOnUse" x1="-1011.4" x2="-697.14" xlink:href="#a"
        y1="519.51" y2="519.51" />
    <linearGradient id="f" gradientUnits="userSpaceOnUse" x1="-1011.4" x2="-697.14" xlink:href="#b"
        y1="519.51" y2="519.51" />
    <path
        d="m237.26 444.82c-16.969 17.19 27.621 108.37 6.7804 120.58-20.84 12.212-78.592-71.257-101.88-64.855-23.291 6.4021-30.265 107.66-54.42 107.82-24.16.16-32.44-101-55.812-107.1-23.371-6.1-80.042 78.11-101.04 66.16-20.996-11.942 22.414-103.69 5.224-120.66-17.19-16.969-108.37 27.621-120.58 6.7804-12.212-20.84 71.257-78.592 64.855-101.88-6.4021-23.291-107.66-30.265-107.82-54.42-.15584-24.154 101.01-32.435 107.11-55.806 6.101-23.372-78.106-80.042-66.164-101.04 11.942-20.996 103.69 22.414 120.66 5.224 16.963-17.18-27.627-108.36-6.787-120.57 20.84-12.216 78.592 71.253 101.88 64.85 23.294-6.402 30.269-107.66 54.423-107.82 24.156-.154 32.436 101.01 55.806 107.11 23.372 6.1011 80.042-78.106 101.04-66.164 20.996 11.942-22.414 103.69-5.224 120.66 17.19 16.969 108.37-27.621 120.58-6.7804 12.212 20.84-71.257 78.592-64.855 101.88 6.4021 23.291 107.66 30.265 107.82 54.42.15583 24.154-101.01 32.435-107.11 55.806-6.1011 23.372 78.106 80.042 66.164 101.04-11.942 20.996-103.69-22.414-120.66-5.224z"
        fill="url(#c)" transform="matrix(-1.1806 0 0 -1.1806 470.917 718.26)" />
    <path
        d="m237.26 444.82c-16.969 17.19 27.621 108.37 6.7804 120.58-20.84 12.212-78.592-71.257-101.88-64.855-23.291 6.4021-30.265 107.66-54.42 107.82-24.16.16-32.44-101-55.812-107.1-23.371-6.1-80.042 78.11-101.04 66.16-20.996-11.942 22.414-103.69 5.224-120.66-17.19-16.969-108.37 27.621-120.58 6.7804-12.212-20.84 71.257-78.592 64.855-101.88-6.4021-23.291-107.66-30.265-107.82-54.42-.15584-24.154 101.01-32.435 107.11-55.806 6.101-23.372-78.106-80.042-66.164-101.04 11.942-20.996 103.69 22.414 120.66 5.224 16.963-17.18-27.627-108.36-6.787-120.57 20.84-12.216 78.592 71.253 101.88 64.85 23.294-6.402 30.269-107.66 54.423-107.82 24.156-.154 32.436 101.01 55.806 107.11 23.372 6.1011 80.042-78.106 101.04-66.164 20.996 11.942-22.414 103.69-5.224 120.66 17.19 16.969 108.37-27.621 120.58-6.7804 12.212 20.84-71.257 78.592-64.855 101.88 6.4021 23.291 107.66 30.265 107.82 54.42.15583 24.154-101.01 32.435-107.11 55.806-6.1011 23.372 78.106 80.042 66.164 101.04-11.942 20.996-103.69-22.414-120.66-5.224z"
        fill="url(#d)" transform="translate(283.997 74.5)" />
    <path
        d="m-697.14 519.51c0 100.2-70.355 181.43-157.14 181.43-86.788 0-157.14-81.228-157.14-181.43s70.355-181.43 157.14-181.43c86.788 0 157.14 81.228 157.14 181.43z"
        fill="url(#e)" transform="matrix(0 1.1545 -1 0 889.217 1356.01)" />
    <path
        d="m-697.14 519.51c0 100.2-70.355 181.43-157.14 181.43-86.788 0-157.14-81.228-157.14-181.43s70.355-181.43 157.14-181.43c86.788 0 157.14 81.228 157.14 181.43z"
        fill="url(#f)" transform="matrix(-1 0 0 .86614 -484.573 -80.25)" />
</svg>